<svg id="magicoon-Filled" height="512" viewBox="0 0 512 512" width="512" xmlns="http://www.w3.org/2000/svg"><g id="map-Filled"><path id="map-Filled-2" d="m168.107 59.094a50.32 50.32 0 0 1 7.893-3.194v351.777l-45.44 23.255a51.609 51.609 0 0 1 -51.2-1.922 54.139 54.139 0 0 1 -26.026-46.718v-217.172c0-29.016 15.787-55.255 41.174-68.266zm39.893-3.194v351.777l88.107 45.229a50.807 50.807 0 0 0 7.893 3.194v-351.777l-88.107-45.229a50.32 50.32 0 0 0 -7.893-3.194zm224.641 27.09a52.143 52.143 0 0 0 -51.2-1.922l-45.441 23.255v351.777a50.807 50.807 0 0 0 7.893-3.2l73.6-37.76c25.387-13.011 41.174-39.25 41.174-68.266v-217.166a54.139 54.139 0 0 0 -26.026-46.718z" data-name="map-Filled"/></g></svg>