<?xml version="1.0" encoding="iso-8859-1"?>
<!-- Generator: Adobe Illustrator 19.0.0, SVG Export Plug-In . SVG Version: 6.00 Build 0)  -->
<svg version="1.1" id="Capa_1" xmlns="http://www.w3.org/2000/svg" xmlns:xlink="http://www.w3.org/1999/xlink" x="0px" y="0px"
	 viewBox="0 0 511.994 511.994" style="enable-background:new 0 0 511.994 511.994;" xml:space="preserve">
<g>
	<g>
		<path d="M434.192,184.216L316.858,66.883c-4.16-4.16-10.923-4.16-15.083,0c-4.16,4.16-4.16,10.923,0,15.083l117.333,117.333
			c2.091,2.069,4.821,3.115,7.552,3.115s5.461-1.045,7.531-3.115C438.352,195.139,438.352,188.376,434.192,184.216z"/>
	</g>
</g>
<g>
	<g>
		<path d="M316.858,66.883c-4.16-4.16-10.923-4.16-15.083,0L152.442,216.216c-4.16,4.16-4.16,10.923,0,15.083
			c2.091,2.069,4.821,3.115,7.552,3.115s5.461-1.045,7.531-3.115L316.858,81.965C321.018,77.805,321.018,71.043,316.858,66.883z"/>
	</g>
</g>
<g>
	<g>
		<path d="M341.392,91.395L63.994,368.664l78.293,78.293c28.011-28.885,100.501-101.781,277.589-277.077L341.392,91.395z"/>
	</g>
</g>
<g>
	<g>
		<path d="M48.912,383.747l-3.136,3.115c-1.024,1.024-1.835,2.24-2.347,3.584L0.762,497.112c-1.579,3.968-0.661,8.469,2.347,11.499
			c2.048,2.048,4.779,3.115,7.552,3.115c1.323,0,2.688-0.256,3.968-0.768l106.667-42.667c2.304-0.917,4.203-2.624,5.376-4.757
			c0.235-0.299,0.576-0.683,0.96-1.109L48.912,383.747z"/>
	</g>
</g>
<g>
	<g>
		<path d="M495.504,16.045c-21.035-21.035-57.707-21.035-78.741,0l-60.288,60.267l78.571,78.571
			c19.008-18.816,39.04-38.635,60.416-59.755c10.624-10.475,16.491-24.448,16.533-39.36
			C512.037,40.835,506.234,26.776,495.504,16.045z"/>
	</g>
</g>
<g>
</g>
<g>
</g>
<g>
</g>
<g>
</g>
<g>
</g>
<g>
</g>
<g>
</g>
<g>
</g>
<g>
</g>
<g>
</g>
<g>
</g>
<g>
</g>
<g>
</g>
<g>
</g>
<g>
</g>
</svg>
