<svg id="Layer_1" height="512" viewBox="0 0 512 512" width="512" xmlns="http://www.w3.org/2000/svg" data-name="Layer 1"><path d="m187.2 21.332h137.6v27.3h21.33v-30.668a17.9 17.9 0 0 0 -5.26-12.694l-.033.024-.019-.024a17.831 17.831 0 0 0 -12.647-5.27h-144.343a17.8 17.8 0 0 0 -11.8 4.472 9.571 9.571 0 0 0 -.9.8 17.9 17.9 0 0 0 -5.259 12.694v30.67h21.331v-27.3zm58.13 210.368a10.67 10.67 0 0 1 21.34 0v192.723a10.67 10.67 0 0 1 -21.34 0zm100.87-.878a10.662 10.662 0 1 1 21.251 1.751l-16.1 192.727a10.661 10.661 0 1 1 -21.25-1.75l16.1-192.727zm-164.3 192.728a10.661 10.661 0 1 1 -21.251 1.75l-16.1-192.726a10.661 10.661 0 1 1 21.25-1.751zm-127.708-279.432 58.426 355.755a14.334 14.334 0 0 0 14.331 12.127h258.1a14.334 14.334 0 0 0 14.331-12.128l58.431-355.755zm413.46-74.157h-423.3a26.526 26.526 0 0 0 -26.411 26.42v26.4h476.122v-26.4a26.534 26.534 0 0 0 -26.411-26.42z" fill="#e63f32" fill-rule="evenodd"/></svg>