<?xml version="1.0" encoding="utf-8"?>
<!-- Generator: $$$/GeneralStr/196=Adobe Illustrator 27.6.0, SVG Export Plug-In . SVG Version: 6.00 Build 0)  -->
<svg version="1.1" id="Icon" xmlns="http://www.w3.org/2000/svg" xmlns:xlink="http://www.w3.org/1999/xlink" x="0px" y="0px"
	 viewBox="0 0 512 512" style="enable-background:new 0 0 512 512;" xml:space="preserve">
<style type="text/css">
	.st0{fill:#E3E9EA;}
</style>
<path id="Search" class="st0" d="M264.3,98.4c4.2,4.2,4.2,10.9,0,15.1c-2.1,2.1-4.8,3.1-7.5,3.1s-5.5-1-7.5-3.1
	c-37.4-37.4-98.3-37.4-135.8,0c-4.2,4.2-10.9,4.2-15.1,0c-4.2-4.2-4.2-10.9,0-15.1C144.1,52.6,218.6,52.6,264.3,98.4z M480,437.3
	c0,11.4-4.4,22.1-12.5,30.2c-8.1,8.1-18.8,12.5-30.2,12.5s-22.1-4.4-30.2-12.5l-112-112c-4.2-4.2-4.2-10.9,0-15.1l15.1-15.1
	l-23.7-23.7c-28.2,24.7-65,39.7-105.3,39.7c-88.2,0-160-71.8-160-160s71.8-160,160-160s160,71.8,160,160c0,40.3-15,77.1-39.7,105.3
	l23.7,23.7l15.1-15.1c4.2-4.2,10.9-4.2,15.1,0l112,112C475.6,415.2,480,425.9,480,437.3z M320,181.3c0-76.5-62.2-138.7-138.7-138.7
	S42.7,104.9,42.7,181.3S104.9,320,181.3,320S320,257.8,320,181.3z M458.7,437.3c0-5.7-2.2-11.1-6.3-15.1L348,317.8L317.8,348
	l104.5,104.5c8.1,8.1,22.1,8.1,30.2,0C456.4,448.4,458.7,443,458.7,437.3L458.7,437.3z"/>
</svg>
